# xmcd
#
# Track frame offsets:
#	150
#	12459
#	28953
#	44753
#	61127
#	78267
#	96510
#	111447
#	131297
#	149994
#	168107
#	184051
#
# Disc length: 2690 seconds
#
# Revision: 1
# Processed by: cddbd v1.5.2PL0 Copyright (c) Steve Scherf et al.
# Submitted via: audiograbber 1.82.01
#
DISCID=ae0a800c
DTITLE=Manos Karystinaios - Meleis H Feugeis
DYEAR=2007
DGENRE=Laika
TTITLE0=Meneis H Feugeis
TTITLE1=Parthn Thn Kardia Mou
TTITLE2=Gyalinh Agaph
TTITLE3=Feugo De Me Stamatas
TTITLE4=8a Se Gureuo
TTITLE5=Mera Nuxta
TTITLE6=Pes Mou Ayta Pou 8es Na Peis
TTITLE7=8a Gino Filos Me Ton Hlio
TTITLE8=Pagos Kai Fotia
TTITLE9=Gurna Piso
TTITLE10=Eisai H Trela Ths Zohs
TTITLE11=Ti Einai Auto Pou 8es
EXTD=
EXTT0=
EXTT1=
EXTT2=
EXTT3=
EXTT4=
EXTT5=
EXTT6=
EXTT7=
EXTT8=
EXTT9=
EXTT10=
EXTT11=
PLAYORDER=
